<?xml version="1.0" standalone="no"?>
<!DOCTYPE svg PUBLIC "-//W3C//DTD SVG 20010904//EN"
 "http://www.w3.org/TR/2001/REC-SVG-20010904/DTD/svg10.dtd">
<svg version="1.0" xmlns="http://www.w3.org/2000/svg"
 width="667.000000pt" height="374.000000pt" viewBox="0 0 667.000000 374.000000"
 preserveAspectRatio="xMidYMid meet">

<g transform="translate(0.000000,374.000000) scale(0.100000,-0.100000)"
fill="#000000" stroke="none">
<path d="M2512 2483 c3 -16 17 -18 101 -21 87 -2 98 -5 95 -20 -3 -15 -23 -18
-173 -22 -142 -4 -170 -7 -170 -20 0 -13 25 -15 158 -18 146 -2 157 -4 157
-21 0 -27 -18 -31 -136 -31 -97 0 -104 -1 -104 -20 0 -19 7 -20 106 -20 93 0
105 -2 100 -16 -3 -9 -6 -20 -6 -25 0 -5 -78 -10 -172 -11 -146 -3 -173 -5
-173 -18 0 -13 26 -15 163 -18 124 -2 163 -5 159 -15 -2 -8 -46 -14 -143 -17
-115 -4 -139 -8 -139 -20 0 -12 22 -15 128 -18 73 -1 127 -7 127 -12 0 -6 -29
-10 -65 -10 -51 0 -65 -3 -65 -15 0 -10 12 -15 38 -17 51 -2 55 -2 71 -12 9
-6 18 -3 27 8 7 10 18 15 24 11 6 -4 48 -58 93 -122 45 -63 110 -154 145 -201
34 -48 75 -105 90 -127 30 -42 229 -319 265 -367 l21 -28 202 0 c121 0 205 4
209 10 3 5 -20 46 -51 90 -33 47 -53 85 -48 90 5 5 43 10 84 12 l75 3 -30 18
c-91 55 -110 180 -40 261 14 16 25 33 25 38 0 14 -238 10 -247 -4 -4 -7 -18
-42 -30 -78 -11 -36 -24 -64 -29 -64 -4 1 -65 84 -135 185 -165 238 -163 235
-207 296 -20 29 -73 103 -116 165 -44 62 -100 141 -125 176 l-45 62 -109 0
c-98 0 -108 -2 -105 -17z"/>
<path d="M3235 2480 c-14 -16 -19 -42 -23 -121 -6 -126 9 -216 55 -334 63
-158 125 -248 153 -218 9 9 77 188 92 241 5 17 12 32 16 32 4 0 41 -69 82
-153 l75 -152 65 0 c56 0 71 -4 107 -30 96 -69 98 -186 5 -266 l-40 -34 52
-100 51 -100 229 -3 c231 -2 262 2 249 34 -3 9 -19 14 -43 14 -36 0 -39 2 -74
70 -20 39 -36 73 -36 75 0 3 36 5 80 5 64 0 80 3 80 15 0 8 -3 15 -7 16 -5 0
-43 1 -86 3 -42 1 -83 8 -89 14 -15 15 -14 16 127 16 105 1 120 3 123 18 3 16
-10 18 -139 20 -103 2 -144 6 -147 16 -3 9 17 12 77 12 64 0 81 3 81 15 0 11
-19 15 -92 17 -60 2 -93 7 -95 15 -3 8 13 13 49 15 70 4 68 22 -2 26 -81 4
-94 15 -25 22 44 4 60 9 60 20 0 12 -16 16 -70 18 l-71 3 -63 122 c-35 67 -92
174 -126 237 -35 63 -95 178 -135 255 -39 77 -76 145 -82 152 -8 10 -65 13
-228 13 -204 0 -218 -1 -235 -20z"/>
<path d="M2450 2035 c0 -12 13 -15 66 -15 48 0 65 3 62 13 -3 7 -28 13 -66 15
-51 2 -62 0 -62 -13z"/>
<path d="M2457 1993 c-17 -16 -3 -23 48 -23 53 0 72 11 39 24 -21 8 -79 8 -87
-1z"/>
<path d="M2525 1893 c-67 -169 -225 -635 -218 -645 2 -5 100 -8 217 -8 265 0
251 -8 250 149 -1 126 -24 214 -88 336 -82 156 -141 217 -161 168z"/>
<path d="M3695 1675 c-35 -34 -35 -96 0 -130 47 -48 135 -25 154 41 10 37 -8
87 -38 103 -36 20 -90 13 -116 -14z"/>
</g>
</svg>
